<svg width="76" height="75" viewBox="0 0 76 75" fill="none" xmlns="http://www.w3.org/2000/svg">
<path d="M41.2567 24.6829H39.365L28.3982 35.4761L28.0147 35.8535L27.4523 36.407L25.2666 38.5581V40.4198L28.4621 43.5647H30.3538L31.3763 42.5583L31.9387 42.0174L32.3222 41.6275L32.8846 41.0865L41.9086 32.1929L42.471 31.6394L42.8544 31.262L43.4168 30.7085L44.4394 29.7147V27.8529L41.2567 24.6829ZM43.6597 28.5951L43.1101 29.136V29.1486L42.4838 29.765L41.9214 30.3185L31.0057 41.074L30.4433 41.6149L29.8169 42.2313H29.0372L26.6343 39.8663V39.099L28.4237 37.3379L28.9861 36.7844L37.5883 28.3184L38.1507 27.7649L39.9402 26.0038L40.4898 25.4629H41.2695L43.6725 27.8278V28.5951H43.6597Z" fill="#73A4E0"/>
<path d="M63.738 71.4409L63.1756 71.9944H64.1343L64.2237 71.9063L63.738 71.4409ZM63.738 71.4409L63.1756 71.9944H64.1343L64.2237 71.9063L63.738 71.4409ZM63.738 71.4409L63.1756 71.9944H64.1343L64.2237 71.9063L63.738 71.4409ZM63.738 71.4409L63.1756 71.9944H64.1343L64.2237 71.9063L63.738 71.4409ZM63.738 71.4409L63.1756 71.9944H64.1343L64.2237 71.9063L63.738 71.4409ZM74.6537 61.4779L73.7974 60.6351L73.2349 61.1886L70.3079 64.0693L69.3621 65.0002L68.7996 65.5537L63.2779 70.9754L62.332 71.9063L62.805 72.3718L63.2012 72.7617H67.2147L74.1169 65.9688L74.1041 62.195L74.6665 61.6415V61.4779H74.6537ZM73.3117 62.9749V64.887L66.6395 71.4535H64.6967L64.2237 71.9189L63.7508 71.4535H64.7095L72.762 63.5284L73.3117 62.9749V62.0314L73.7846 62.4969L73.3117 62.9749ZM63.738 71.4409L63.1756 71.9944H64.1343L64.2237 71.9063L63.738 71.4409ZM63.738 71.4409L63.1756 71.9944H64.1343L64.2237 71.9063L63.738 71.4409ZM63.738 71.4409L63.1756 71.9944H64.1343L64.2237 71.9063L63.738 71.4409ZM63.738 71.4409L63.1756 71.9944H64.1343L64.2237 71.9063L63.738 71.4409Z" fill="#73A4E0"/>
<path d="M45.6127 32.8597L44.6668 33.7906L44.1811 33.3251L42.4683 31.6395L41.9059 32.193L32.8819 41.0866L34.5947 42.7723L35.0676 43.2252L34.5052 43.7912L34.1218 44.1686L33.7639 43.8164L33.6489 43.7032L30.9902 41.0866L41.9059 30.3186L42.4683 29.7651L43.4142 30.696L42.8518 31.2621L44.5646 32.9477L45.1398 32.3942L45.2548 32.5075L45.6127 32.8597Z" fill="#73A4E0"/>
<path d="M37.1797 26.8343L36.6173 27.3878L35.2369 26.0292H32.4632L31.4279 27.0482L30.8655 27.6017L30.482 27.9791L29.9196 28.5325L28.2452 30.1805L27.6828 30.7339L26.6475 31.7529V34.4826L28.9738 36.7721L37.5759 28.3061L38.1383 27.7526L37.1797 26.8343ZM28.961 34.9229L27.9768 33.9543V32.319L33.5752 26.8092H35.2369L36.2211 27.7778L28.961 34.9229Z" fill="#73A4E0"/>
<path d="M16.9682 13.9528L16.6359 13.1351L14.7058 8.48073L4.35249 0.857574L1.04199 4.11566L8.78779 14.305L13.5299 16.2045L14.3351 16.519L14.8847 16.7328L17.1983 14.456V14.4434L17.3516 14.305L16.9682 13.9528ZM15.6005 14.1541L14.5524 15.1856L9.64418 13.2232L2.81867 4.24145L4.48031 2.60612L5.02992 2.05262L14.1562 8.77006L16.1629 13.6131L15.6005 14.1541Z" fill="#73A4E0"/>
<path d="M31.4192 27.048L30.8567 27.6015L17.3463 14.3176L16.9884 13.9654L16.6561 13.1477L16.4132 13.3867L16.196 13.6006L15.6336 14.1541L13.793 15.9655L14.3554 16.519L14.7388 16.8964L28.2493 30.1929L29.1951 31.1238L32.3906 27.9789L31.4192 27.048ZM29.9109 28.545L29.1823 29.262L15.6719 15.9655L16.9629 14.695L30.4733 27.9915L29.9109 28.545Z" fill="#73A4E0"/>
<path d="M34.7058 42.8713L33.7568 43.8053L45.6057 55.4666L46.5547 54.5326L34.7058 42.8713Z" fill="#73A4E0"/>
<path d="M55.6638 49.6588L54.7148 50.5928L69.8174 65.4562L70.7664 64.5222L55.6638 49.6588Z" fill="#73A4E0"/>
<path d="M62.7953 72.3845L50.4736 60.2956V53.3392L37.6406 40.7094L38.5865 39.7785L51.8157 52.7857V59.7421L63.7412 71.4536L62.7953 72.3845Z" fill="#73A4E0"/>
<path d="M48.6331 54.5467C47.9685 53.88 46.9587 53.7416 46.1662 54.1567C45.9745 54.2574 45.7828 54.3957 45.6166 54.5467C45.5911 54.5718 45.5527 54.6096 45.5399 54.6348C45.476 54.6851 45.4249 54.748 45.3866 54.8109C45.3738 54.8234 45.3738 54.8234 45.3738 54.8234C45.3098 54.9115 45.2587 54.987 45.2076 55.075C45.0798 55.3518 45.0031 55.6537 44.9903 55.9556C44.9647 56.5091 45.182 57.0752 45.6166 57.5029C46.358 58.2325 47.5083 58.3079 48.3392 57.7419L48.3519 57.7293C48.4542 57.679 48.5564 57.5909 48.6331 57.5029C49.4767 56.6978 49.4767 55.3644 48.6331 54.5467ZM47.6873 56.5846C47.585 56.6852 47.4572 56.7481 47.3294 56.7858C47.061 56.8613 46.767 56.7984 46.5625 56.5846C46.358 56.3833 46.2813 56.0814 46.358 55.8172C46.3835 55.6914 46.4474 55.5782 46.5625 55.4776C46.8692 55.1631 47.3805 55.1631 47.6873 55.4776C48.0068 55.7795 48.0068 56.2827 47.6873 56.5846Z" fill="#73A4E0"/>
<path d="M63.6008 62.3585C62.9362 61.7044 61.9392 61.566 61.1339 61.9686C60.9294 62.0692 60.7505 62.195 60.5843 62.3585C60.5587 62.3837 60.5332 62.4089 60.4948 62.4466C60.4309 62.5095 60.3798 62.585 60.3287 62.6479C60.2775 62.7233 60.2392 62.7988 60.1881 62.8869C60.0475 63.1636 59.9836 63.4781 59.9708 63.78C59.9452 64.3335 60.1625 64.887 60.5971 65.3147C61.3257 66.0443 62.4505 66.1324 63.2941 65.5915C63.2941 65.5915 63.3068 65.5915 63.3068 65.5789C63.4219 65.5034 63.5241 65.4153 63.6264 65.3147C64.4444 64.5096 64.4444 63.1762 63.6008 62.3585ZM62.655 64.3964C62.5527 64.4971 62.4249 64.5725 62.2971 64.5977C62.0414 64.6606 61.7474 64.5977 61.5302 64.3964C61.3256 64.1951 61.2617 63.9058 61.3256 63.6416C61.3512 63.5159 61.4279 63.4026 61.5302 63.2894C61.8497 62.9749 62.3482 62.9749 62.655 63.2894C62.9617 63.5913 62.9745 64.0945 62.655 64.3964Z" fill="#73A4E0"/>
<path d="M55.587 47.7034C54.7562 46.8857 53.3885 46.8857 52.5577 47.7034C52.4555 47.7915 52.3788 47.9047 52.3149 48.0179C51.7397 48.8355 51.8292 49.9551 52.5577 50.6847C53.0307 51.1502 53.657 51.3389 54.2705 51.2885C54.5773 51.2634 54.8585 51.1753 55.1269 51.0244C55.178 50.9992 55.2291 50.9615 55.2675 50.9363C55.3697 50.8608 55.472 50.7854 55.5487 50.6973C55.5615 50.6973 55.5615 50.6973 55.5742 50.6847C55.766 50.4835 55.9194 50.2696 56.0088 50.0306C56.3795 49.2507 56.2261 48.3324 55.587 47.7034ZM54.2833 49.9425C54.0276 50.0054 53.7337 49.9425 53.5164 49.7413C53.3119 49.54 53.2479 49.2381 53.3119 48.9865C53.3374 48.8607 53.4013 48.7349 53.5164 48.6343C53.8359 48.3198 54.3344 48.3324 54.6412 48.6343C54.9479 48.9362 54.9479 49.4394 54.6412 49.7413C54.5389 49.8545 54.4111 49.9174 54.2833 49.9425Z" fill="#73A4E0"/>
<path d="M72.1337 56.9243C71.4691 56.2701 70.4593 56.1318 69.654 56.5343C69.4495 56.6349 69.2706 56.7733 69.1044 56.9243C69.0789 56.9494 69.0405 56.9872 69.0149 57.0123C68.951 57.0752 68.8871 57.1507 68.8488 57.2262C68.7849 57.3142 68.7337 57.3897 68.7082 57.4652C68.5676 57.7419 68.4909 58.0438 68.4781 58.3458C68.4653 58.8992 68.6698 59.4653 69.1044 59.893C69.8458 60.6226 70.9961 60.6981 71.8269 60.1446C71.942 60.0691 72.0315 59.9811 72.1337 59.893C72.9645 59.0754 72.9645 57.7419 72.1337 56.9243ZM71.1878 58.9621C71.0856 59.0628 70.9578 59.1383 70.83 59.1634C70.5615 59.2263 70.2803 59.1634 70.0631 58.9621C69.8585 58.7609 69.7946 58.4715 69.8585 58.2074C69.8841 58.0816 69.948 57.9684 70.0631 57.8552C70.3826 57.5407 70.8811 57.5407 71.1878 57.8552C71.4946 58.1696 71.4946 58.6602 71.1878 58.9621Z" fill="#73A4E0"/>
<path d="M63.0893 48.0054C62.4246 47.3513 61.4149 47.2129 60.6096 47.6155C60.4179 47.7161 60.2261 47.8545 60.06 48.0054C60.0344 48.0306 60.0089 48.0683 59.9833 48.0935C59.9194 48.1564 59.8683 48.2067 59.8299 48.2696C59.8171 48.2822 59.8171 48.2822 59.8171 48.2822C59.766 48.3703 59.7021 48.4457 59.651 48.5338C59.5231 48.8105 59.4464 49.1124 59.4337 49.4143C59.4081 49.9678 59.6254 50.5339 60.06 50.9616C60.8013 51.6912 61.9389 51.7667 62.7697 51.2006C62.872 51.1377 62.987 51.0497 63.0893 50.9616C63.9201 50.1691 63.9201 48.8357 63.0893 48.0054ZM62.1434 50.0559C62.0412 50.1565 61.9133 50.2194 61.7855 50.2572C61.5299 50.3201 61.2359 50.2572 61.0186 50.0559C60.8141 49.8546 60.7374 49.5653 60.8141 49.3011C60.8397 49.1753 60.9036 49.0621 61.0186 48.9489C61.3382 48.6344 61.8367 48.6344 62.1434 48.9489C62.4502 49.2508 62.4502 49.754 62.1434 50.0559Z" fill="#73A4E0"/>
<path d="M61.5285 62.3585L60.5826 63.2894L55.8789 58.6728V51.6283H57.221V58.1193L61.5285 62.3585Z" fill="#73A4E0"/>
<path d="M58.8818 45.9171H49.9472L41.1533 37.2499L42.0992 36.319L50.5096 44.5963H55.6352L44.2977 33.4383L45.2435 32.5074L58.8818 45.9171Z" fill="#73A4E0"/>
<path d="M57.7322 44.7837L56.7832 45.7177L60.064 48.9465L61.013 48.0125L57.7322 44.7837Z" fill="#73A4E0"/>
<path d="M70.0674 56.9241L69.1088 57.855L65.8494 54.6472H59.1006V53.3264H66.399L70.0674 56.9241Z" fill="#73A4E0"/>
<path d="M63.2899 42.7488L61.3105 44.6968L62.2595 45.6308L64.2389 43.6828L63.2899 42.7488Z" fill="#73A4E0"/>
<path d="M46.1464 59.6144L43.5977 62.1227L44.5467 63.0567L47.0954 60.5483L46.1464 59.6144Z" fill="#73A4E0"/>
<path d="M44.5535 59.6142L43.6045 60.5482L46.1532 63.0566L47.1022 62.1226L44.5535 59.6142Z" fill="#73A4E0"/>
<path d="M61.1327 42.1936L60.7492 42.571L50.5621 32.5451H46.8809L46.3185 33.0986L46.0884 33.3251L45.526 33.8785L45.1426 34.2559L44.5674 34.8094L41.6276 37.7153L41.0524 38.2688L39.0584 40.2438L35.5434 43.7031L34.981 44.244L34.5976 44.634L34.0351 45.1875L33.8051 45.4139V49.0368L43.187 58.2827L42.2411 59.2136L32.4502 49.5903V44.8856L33.0893 44.2566V44.244L33.6517 43.7031L34.0351 43.3257V43.3131L34.5976 42.7722L43.6215 33.8785L45.7561 31.7778H50.5493L61.1327 42.1936Z" fill="#73A4E0"/>
<path d="M75.3811 56.2071V60.9244L74.6526 61.654L74.0774 62.2075L72.7353 63.5284L64.6955 71.4408L64.2098 71.9188L64.1331 72.0069L63.3534 72.7617L62.791 73.3278L62.0752 74.0196H57.2948L47.5039 64.3838L47.8874 64.0064L48.4498 63.4529L57.8444 72.6988H61.5256L63.2639 70.988L68.7729 65.5536L69.3353 65.0001L70.2939 64.0693L73.221 61.1886L74.039 60.3835V60.3709L74.6014 59.8174V56.2071L64.4015 46.1687L64.785 45.7913L75.3811 56.2071Z" fill="#73A4E0"/>
<path d="M41.2595 24.683H39.355L37.1821 26.834L28.401 35.4761L28.0175 35.8535L27.4551 36.407L25.2694 38.5581L24.707 39.1116V40.9733L27.9025 44.1182H29.7942L30.3566 43.5647L31.3792 42.5584L31.9416 42.0174L32.325 41.6275L32.8874 41.0866L41.9114 32.1929L42.4738 31.6394L42.8573 31.262L43.4197 30.7085L44.4422 29.7147V27.853L41.2595 24.683ZM41.9114 30.3185L30.9957 41.074L30.4333 41.6149L29.2318 42.7974H28.4521L26.0363 40.445V39.6777L26.5987 39.1242L28.3882 37.363L28.9506 36.8095L37.5528 28.3436L38.1152 27.7901L39.8919 26.029H40.6844L43.0873 28.4065V29.1738L42.461 29.7902L41.9114 30.3185Z" fill="white"/>
<path d="M74.0834 62.2076V62.0441L73.227 61.2013L70.3 64.082L69.3541 65.0128L68.7917 65.5663L63.27 70.9881L61.7617 72.4725L62.6181 73.3153H66.6316L74.0962 65.9689L74.0834 62.2076ZM64.1391 72.007L64.2286 71.919L64.7015 71.4535L72.7541 63.5285V62.585L73.227 63.0504L72.7541 63.5159V65.4154L66.6572 71.4284L66.0948 71.9818H64.1391L63.6662 72.4473L63.1933 71.9818H64.1391V72.007Z" fill="#112D49"/>
<path d="M45.0542 33.4131L44.1083 34.3439L43.6226 33.8785L41.9098 32.1929L32.8858 41.0865L32.3234 41.6274L34.0362 43.3131V43.3257L34.1512 43.4263V43.4389H34.164L34.5091 43.7911L34.1257 44.1685L33.5633 44.722L33.2054 44.3572L33.0903 44.2565V44.244L31.3776 42.5583L30.4189 41.6274L30.9941 41.0865L41.9098 30.3185L45.0542 33.4131Z" fill="white"/>
<path d="M35.2378 26.0292H32.4641L31.4288 27.0482L30.8664 27.6017L30.4829 27.9791L29.9205 28.5325L28.2461 30.1805L27.6837 30.7339L26.6483 31.7529L26.0859 32.3064V35.0361L28.4122 37.3256L28.9746 36.7721L37.5768 28.3061L35.2378 26.0292ZM28.3995 35.4764L27.4153 34.5078V32.8725L33.0137 27.3627H34.6753L35.6596 28.3313L28.3995 35.4764Z" fill="white"/>
<path d="M16.9749 13.9528L16.6426 13.1351L14.7125 8.48073L4.35923 0.857574L0.486328 4.66915L8.23213 14.8459L13.7795 17.0725L14.3291 17.2863L17.205 14.456V14.4434L16.9749 13.9528ZM13.9968 15.7391L9.07574 13.7641L2.25022 4.79494L2.81263 4.24145L4.47427 2.60612L13.5877 9.32355L15.5945 14.1666L13.9968 15.7391Z" fill="white"/>
<path d="M30.8548 27.6142L17.3444 14.3177L16.3985 13.3868L16.1812 13.6007L15.6188 14.1542L13.2158 16.5191L13.7782 17.0726L27.6721 30.7465L28.618 31.6774L31.8134 28.5325L30.8548 27.6142ZM28.618 29.8156L15.0948 16.5191L16.3857 15.2486L29.8961 28.5451L28.618 29.8156Z" fill="white"/>
<path d="M34.1541 43.4331L33.2051 44.3671L45.054 56.0283L46.003 55.0944L34.1541 43.4331Z" fill="white"/>
<path d="M55.0994 50.2295L54.1504 51.1635L69.253 66.0269L70.202 65.0929L55.0994 50.2295Z" fill="white"/>
<path d="M62.2318 72.938L49.9101 60.8491V53.8927L37.0771 41.2629L38.023 40.3321L51.2522 53.3518V60.2957L63.1777 72.0071L62.2318 72.938Z" fill="white"/>
<path d="M48.0824 55.0876C47.6478 54.6599 47.0726 54.4586 46.4974 54.4712C46.1907 54.4838 45.8711 54.5593 45.6027 54.6851C45.526 54.7228 45.4621 54.7731 45.3982 54.8109C45.3854 54.8234 45.3854 54.8235 45.3854 54.8235C45.296 54.8738 45.2193 54.9367 45.1553 55.0121C45.117 55.0373 45.0914 55.0625 45.0531 55.0876C44.8869 55.2512 44.7591 55.4398 44.6569 55.6285C44.2478 56.421 44.3756 57.4022 45.0531 58.0564C45.8839 58.874 47.2516 58.874 48.0824 58.0564C48.1719 57.9557 48.2741 57.8551 48.338 57.7419L48.3508 57.7293C48.9004 56.9242 48.811 55.8172 48.0824 55.0876ZM45.9989 57.1381C45.6794 56.8362 45.6794 56.333 45.9989 56.0311C46.1012 55.9304 46.229 55.8676 46.3568 55.8298C46.6253 55.7795 46.9065 55.8424 47.111 56.0311C47.3155 56.2324 47.3922 56.5343 47.3155 56.7859C47.2899 56.9116 47.2132 57.0374 47.111 57.1381C46.817 57.4526 46.3057 57.4526 45.9989 57.1381Z" fill="white"/>
<path d="M63.0364 62.9118C62.6018 62.4841 62.0266 62.2829 61.4642 62.2954C61.1575 62.308 60.8379 62.3709 60.5695 62.5093H60.5567C60.4673 62.5596 60.3906 62.5974 60.3139 62.6477C60.2372 62.698 60.1733 62.7483 60.1094 62.8112C60.071 62.8364 60.0455 62.8615 60.0199 62.8993C59.8537 63.0628 59.7259 63.2515 59.6236 63.4402C59.2146 64.2201 59.3425 65.2013 60.0199 65.868C60.8507 66.6857 62.2184 66.6857 63.0492 65.868C63.1387 65.78 63.2154 65.6919 63.2793 65.5913C63.2793 65.5913 63.292 65.5913 63.292 65.5787C63.8672 64.7736 63.7778 63.6415 63.0364 62.9118ZM60.9657 64.9497C60.659 64.6478 60.659 64.1446 60.9657 63.8427C61.068 63.7421 61.1958 63.6666 61.3236 63.6415C61.5921 63.5786 61.886 63.6415 62.0905 63.8427C62.2951 64.044 62.3717 64.3333 62.2951 64.5975C62.2695 64.7233 62.2056 64.8365 62.0905 64.9497C61.7838 65.2642 61.2725 65.2642 60.9657 64.9497Z" fill="#112D49"/>
<path d="M55.0274 48.2568C54.2861 47.5272 53.1485 47.4517 52.3177 48.0178C52.2154 48.0807 52.1004 48.1688 51.9981 48.2568C51.1673 49.0745 51.1673 50.4205 51.9981 51.2382C52.6883 51.9175 53.7492 52.0433 54.5673 51.5652C54.7334 51.4772 54.8868 51.364 55.0274 51.2382C55.0785 51.1753 55.1425 51.125 55.1808 51.0621C55.2191 51.0243 55.2575 50.9866 55.283 50.9363C55.347 50.8356 55.4109 50.7224 55.4748 50.5966C55.6026 50.3199 55.6537 50.0054 55.6409 49.6909C55.6282 49.1751 55.4236 48.6468 55.0274 48.2568ZM52.944 49.1877C53.0462 49.0871 53.174 49.0242 53.3019 48.9864C53.5703 48.911 53.8643 48.9739 54.0688 49.1877C54.2733 49.389 54.35 49.6783 54.2733 49.9425C54.2477 50.0683 54.171 50.1941 54.0688 50.2947C53.762 50.5966 53.2507 50.5966 52.944 50.2947C52.6372 49.9928 52.6372 49.4896 52.944 49.1877Z" fill="white"/>
<path d="M71.5763 57.4776C71.1417 57.0499 70.5665 56.8487 70.0041 56.8612C69.6974 56.8738 69.3906 56.9493 69.1094 57.0877C69.0327 57.1254 68.9432 57.1757 68.8665 57.226C68.7899 57.2638 68.7132 57.3141 68.6493 57.3896C68.6237 57.4147 68.5853 57.4399 68.547 57.4651C68.3808 57.6286 68.2402 57.8047 68.1508 58.006V58.0185C67.7545 58.8111 67.8823 59.7923 68.547 60.4464C69.3778 61.2641 70.7455 61.2641 71.5763 60.4464C71.6658 60.3458 71.7552 60.2577 71.8319 60.1445C72.3943 59.3268 72.3176 58.2072 71.5763 57.4776ZM69.4929 59.5155C69.1861 59.2136 69.1861 58.7104 69.4929 58.4085C69.5951 58.3079 69.7229 58.245 69.8507 58.2072C70.1192 58.1443 70.4131 58.2072 70.6177 58.4085C70.8222 58.6098 70.8989 58.9117 70.8222 59.1759C70.7966 59.3142 70.7327 59.4274 70.6177 59.5281C70.3237 59.83 69.8124 59.83 69.4929 59.5155Z" fill="#112D49"/>
<path d="M62.5266 48.5714C62.0921 48.1437 61.5169 47.9424 60.9417 47.955C60.6349 47.9676 60.3154 48.0431 60.047 48.1689C59.9703 48.2066 59.9064 48.2569 59.8425 48.2947C59.8297 48.3072 59.8297 48.3072 59.8297 48.3072C59.7402 48.3701 59.6635 48.4205 59.5996 48.4834C59.5613 48.5085 59.5357 48.5337 59.5101 48.5714C59.344 48.7349 59.2161 48.9236 59.1139 49.1123C58.7049 49.9048 58.8327 50.886 59.5101 51.5402C60.3409 52.3578 61.7086 52.3578 62.5394 51.5402C62.6417 51.4521 62.7184 51.3389 62.7823 51.2257C63.3447 50.408 63.2552 49.2884 62.5266 48.5714ZM60.4432 50.6093C60.1364 50.3074 60.1364 49.8042 60.4432 49.5023C60.5454 49.4017 60.6733 49.3388 60.8011 49.301C61.0695 49.2381 61.3635 49.301 61.568 49.5023C61.7725 49.7036 61.8492 50.0055 61.7725 50.2696C61.7469 50.3954 61.6703 50.5087 61.568 50.6219C61.274 50.9238 60.7627 50.9238 60.4432 50.6093Z" fill="white"/>
<path d="M60.9679 62.9122L60.0221 63.8431L55.3184 59.2264V52.1819H56.6605V58.6729L60.9679 62.9122Z" fill="white"/>
<path d="M58.3066 46.4708H49.3848L40.5781 37.8036L41.5368 36.8727L49.9472 45.15H55.0727L43.7352 33.992L44.6811 33.0611L58.3066 46.4708Z" fill="white"/>
<path d="M57.1638 45.3363L56.2148 46.2703L59.4957 49.4992L60.4447 48.5652L57.1638 45.3363Z" fill="white"/>
<path d="M69.5069 57.4777L68.5482 58.4086L65.2889 55.2008H58.54V53.88H65.8385L69.5069 57.4777Z" fill="white"/>
<path d="M64.2434 43.6781L62.2623 45.628L61.6999 46.1814L60.7412 45.2506L63.2976 42.7347L64.2434 43.6781Z" fill="white"/>
<path d="M45.581 60.1668L43.0322 62.6752L43.9812 63.6091L46.5299 61.1008L45.581 60.1668Z" fill="white"/>
<path d="M43.9881 60.1667L43.0391 61.1007L45.5878 63.6091L46.5368 62.6751L43.9881 60.1667Z" fill="white"/>
<path d="M61.1354 42.1935L60.752 42.5709L60.1896 43.1244L50.0024 33.0986H46.3213L46.0912 33.325L45.5288 33.8785L45.1453 34.2559L44.5701 34.8094L41.6303 37.7152L41.0551 38.2687L39.0612 40.2437L35.5461 43.703L34.9838 44.244L34.6003 44.6339L34.0379 45.1874L33.8078 45.4138L33.2454 45.9799V49.5902L42.6273 58.8361L41.6814 59.767L31.9033 50.1437V45.4264L32.4529 44.8855L33.092 44.2565V44.244L33.6544 43.703L34.0379 43.3257V43.3131L34.6003 42.7722L43.6243 33.8785L45.7588 31.7777H50.552L61.1354 42.1935Z" fill="white"/>
<path d="M75.388 56.2071V60.9244L74.6594 61.654L74.0842 62.2075L72.7421 63.5284L64.7023 71.4408L64.2166 71.9188L64.1399 72.0069L63.3602 72.7617L62.7978 73.3278L62.082 74.0196L61.5196 74.5731H56.7264L46.9355 64.9372L47.5107 64.3838L47.8942 64.0064L57.2888 73.2523H60.97L63.2707 70.988L68.7925 65.5662L69.3549 65.0127L70.3008 64.0693L73.2278 61.1886L74.0459 60.3835V60.3709V56.7606L63.8459 46.7222L64.4083 46.1687L64.7918 45.7913L75.388 56.2071Z" fill="#112D49"/>
<path d="M30.6321 23.2567L31.2037 22.6942L31.3596 22.8476H36.2827L36.4775 23.0393L38.0493 21.4797H38.0623H42.4138L47.3629 26.3632V28.6771H51.8574L62.7817 39.4285L67.8737 44.4398L69.0298 45.5776C69.7052 43.0208 70.056 40.3489 70.056 37.5876C70.056 20.0606 55.6244 5.85757 37.8155 5.85757C30.788 5.85757 24.4666 8.11678 19.1668 11.8753L30.6321 23.2567Z" fill="#73A4E0"/>
<path d="M45.9556 68.5068L45.1353 67.6994L40.0307 62.6757L29.0794 51.8978V47.4636H26.7095L21.7482 42.5809V38.2877L23.3368 36.7242L23.1415 36.532V31.3673L23.5582 30.9572L11.702 19.4065C7.88664 24.6224 5.84863 31.1366 5.84863 38.057C5.84863 55.6272 20.3158 69.8652 38.1686 69.8652C40.9813 69.8652 43.6465 69.4603 46.2618 68.7435L45.9556 68.5068Z" fill="#73A4E0"/>
</svg>
